<svg xmlns="http://www.w3.org/2000/svg" viewBox="0 0 900 320" role="img" aria-label="▄9-Ëä;╚">
  <rect width="900" height="320" rx="12" fill="#F5F7F3" stroke="#C8D4C0"/>
  <text x="450" y="36" text-anchor="middle" font-family="Noto Sans SC, sans-serif" font-size="20" fill="#4A5A45" font-weight="bold">Caigentan - Five Themes</text>
  <text x="450" y="58" text-anchor="middle" font-family="Noto Sans SC, sans-serif" font-size="12" fill="#7A8A75">xiusheng / yingchou / pingyi / xianshi / gailun</text>
  <rect x="350" y="80" width="200" height="56" rx="8" fill="#7A9078" stroke="#5A6A58"/>
  <text x="450" y="115" text-anchor="middle" font-family="Noto Sans SC, sans-serif" font-size="15" fill="#F5F7F3" font-weight="bold">Vegetable Roots</text>
  <line x1="450" y1="136" x2="450" y2="160" stroke="#9CB098" stroke-width="2"/>
  <line x1="130" y1="160" x2="770" y2="160" stroke="#9CB098" stroke-width="2"/>
  <line x1="130" y1="160" x2="130" y2="180" stroke="#9CB098" stroke-width="2"/>
  <line x1="310" y1="160" x2="310" y2="180" stroke="#9CB098" stroke-width="2"/>
  <line x1="450" y1="160" x2="450" y2="180" stroke="#9CB098" stroke-width="2"/>
  <line x1="590" y1="160" x2="590" y2="180" stroke="#9CB098" stroke-width="2"/>
  <line x1="770" y1="160" x2="770" y2="180" stroke="#9CB098" stroke-width="2"/>
  <rect x="50" y="180" width="160" height="90" rx="8" fill="#D4E0D0" stroke="#7A9078"/>
  <text x="130" y="215" text-anchor="middle" font-family="Noto Sans SC, sans-serif" font-size="14" fill="#2F3D2B" font-weight="bold">¯</text>
  <text x="130" y="238" text-anchor="middle" font-family="Noto Sans SC, sans-serif" font-size="10" fill="#4A5A45">Self-cultivation</text>
  <rect x="230" y="180" width="160" height="90" rx="8" fill="#D4E0D0" stroke="#7A9078"/>
  <text x="310" y="215" text-anchor="middle" font-family="Noto Sans SC, sans-serif" font-size="14" fill="#2F3D2B" font-weight="bold">öl</text>
  <text x="310" y="238" text-anchor="middle" font-family="Noto Sans SC, sans-serif" font-size="10" fill="#4A5A45">Social conduct</text>
  <rect x="410" y="180" width="160" height="90" rx="8" fill="#D4E0D0" stroke="#7A9078"/>
  <text x="490" y="215" text-anchor="middle" font-family="Noto Sans SC, sans-serif" font-size="14" fill="#2F3D2B" font-weight="bold">─«</text>
  <text x="490" y="238" text-anchor="middle" font-family="Noto Sans SC, sans-serif" font-size="10" fill="#4A5A45">Judgment</text>
  <rect x="590" y="180" width="160" height="90" rx="8" fill="#D4E0D0" stroke="#7A9078"/>
  <text x="670" y="215" text-anchor="middle" font-family="Noto Sans SC, sans-serif" font-size="14" fill="#2F3D2B" font-weight="bold">‗</text>
  <text x="670" y="238" text-anchor="middle" font-family="Noto Sans SC, sans-serif" font-size="10" fill="#4A5A45">Leisure</text>
  <rect x="770" y="180" width="80" height="90" rx="8" fill="#B8C8B0" stroke="#7A9078"/>
  <text x="810" y="215" text-anchor="middle" font-family="Noto Sans SC, sans-serif" font-size="14" fill="#2F3D2B" font-weight="bold">é║</text>
  <text x="810" y="238" text-anchor="middle" font-family="Noto Sans SC, sans-serif" font-size="10" fill="#4A5A45">Overview</text>
  <text x="450" y="300" text-anchor="middle" font-family="Noto Sans SC, sans-serif" font-size="11" fill="#7A8A75" font-style="italic">Inward polish - Outward grace - Middle way</text>
</svg>
