<svg xmlns="http://www.w3.org/2000/svg" viewBox="0 0 920 280" width="920" height="280" role="img" aria-label="菜根谭 · 场景地图">
  <rect width="920" height="280" rx="12" fill="#F5F7F3" stroke="#C8D4C0"/>
  <text x="460" y="36" text-anchor="middle" font-family="Noto Sans SC, PingFang SC, Microsoft YaHei, sans-serif" font-size="20" fill="#4A5A45" font-weight="bold">菜根谭 · 场景地图</text>
  <defs><marker id="arr" markerWidth="8" markerHeight="8" refX="6" refY="3" orient="auto"><path d="M0,0 L8,3 L0,6 Z" fill="#7A8A75"/></marker></defs>
  <text x="460" y="58" text-anchor="middle" font-family="Noto Sans SC, PingFang SC, Microsoft YaHei, sans-serif" font-size="12" fill="#7A8A75">按场景选编阅读</text>
  <rect x="50" y="110" width="120" height="50" rx="8" fill="#D4E0D0" stroke="#7A9078"/>
  <text x="110.0" y="140" text-anchor="middle" font-family="Noto Sans SC, PingFang SC, Microsoft YaHei, sans-serif" font-size="12" fill="#2F3D2B" font-weight="bold">职场</text>
  <line x1="170" y1="135" x2="190" y2="135" stroke="#7A8A75" stroke-width="2" marker-end="url(#arr)"/>
  <rect x="190" y="110" width="120" height="50" rx="8" fill="#D4E0D0" stroke="#7A9078"/>
  <text x="250.0" y="140" text-anchor="middle" font-family="Noto Sans SC, PingFang SC, Microsoft YaHei, sans-serif" font-size="12" fill="#2F3D2B" font-weight="bold">情绪</text>
  <line x1="310" y1="135" x2="330" y2="135" stroke="#7A8A75" stroke-width="2" marker-end="url(#arr)"/>
  <rect x="330" y="110" width="120" height="50" rx="8" fill="#D4E0D0" stroke="#7A9078"/>
  <text x="390.0" y="140" text-anchor="middle" font-family="Noto Sans SC, PingFang SC, Microsoft YaHei, sans-serif" font-size="12" fill="#2F3D2B" font-weight="bold">领导</text>
  <line x1="450" y1="135" x2="470" y2="135" stroke="#7A8A75" stroke-width="2" marker-end="url(#arr)"/>
  <rect x="470" y="110" width="120" height="50" rx="8" fill="#D4E0D0" stroke="#7A9078"/>
  <text x="530.0" y="140" text-anchor="middle" font-family="Noto Sans SC, PingFang SC, Microsoft YaHei, sans-serif" font-size="12" fill="#2F3D2B" font-weight="bold">合伙</text>
  <line x1="590" y1="135" x2="610" y2="135" stroke="#7A8A75" stroke-width="2" marker-end="url(#arr)"/>
  <rect x="610" y="110" width="120" height="50" rx="8" fill="#D4E0D0" stroke="#7A9078"/>
  <text x="670.0" y="140" text-anchor="middle" font-family="Noto Sans SC, PingFang SC, Microsoft YaHei, sans-serif" font-size="12" fill="#2F3D2B" font-weight="bold">线上</text>
  <line x1="730" y1="135" x2="750" y2="135" stroke="#7A8A75" stroke-width="2" marker-end="url(#arr)"/>
  <rect x="750" y="110" width="120" height="50" rx="8" fill="#D4E0D0" stroke="#7A9078"/>
  <text x="810.0" y="140" text-anchor="middle" font-family="Noto Sans SC, PingFang SC, Microsoft YaHei, sans-serif" font-size="12" fill="#2F3D2B" font-weight="bold">家庭</text>
  <text x="460" y="260" text-anchor="middle" font-family="Noto Sans SC, PingFang SC, Microsoft YaHei, sans-serif" font-size="11" fill="#7A8A75">修省养心 · 应酬不失 · 评议留余地</text>
</svg>
